{"title":"American Ultra 2015 Cam x264 AC3-Garmin","uid":12366866,"size":826838826,"categoryP":"video","categoryS":"movies","magnet":"?xt=urn:btih:37591192d587c071fb8cde25d0567d8a6f799c81&amp;dn=American+Ultra+2015+Cam+x264+AC3-Garmin&amp;tr=udp%3A%2F%2Ftracker.openbittorrent.com%3A80&amp;tr=udp%3A%2F%2Fopen.demonii.com%3A1337&amp;tr=udp%3A%2F%2Ftracker.coppersurfer.tk%3A6969&amp;tr=udp%3A%2F%2Fexodus.desync.com%3A6969","seeders":13,"leechers":5,"uploader":"SS132203","files":4,"time":1441606130,"description":"American Ultra 2015 Cam x264 AC3-Garmin\n &lt;a href=&quot;\nhttp://imgsparrow.co/image/8yC&quot; rel=&quot;nofollow&quot; target=&quot;_NEW&quot;&gt;\nhttp://imgsparrow.co/image/8yC&lt;/a&gt;\n &lt;a href=&quot;\nhttp://imgsparrow.co/image/9b&quot; rel=&quot;nofollow&quot; target=&quot;_NEW&quot;&gt;\nhttp://imgsparrow.co/image/9b&lt;/a&gt;\n\nInfo : - \n\nThank Garmin Not Me!\n\nFormat                                   : Matroska\nFormat version                           : Version 4 / Version 2\nFile size                                : 772 MiB\nDuration                                 : 1h 26mn\nOverall bit rate                         : 1 252 Kbps\n\nVideo\nID                                       : 1\nFormat                                   : AVC\nFormat/Info                              : Advanced Video Codec\nFormat profile                           : &lt;a class=&quot;__cf_email__&quot; href=&quot;/cdn-cgi/l/email-protection&quot; data-cfemail=&quot;7830111f1038344a5649&quot;&gt;[email&amp;#160;protected]&lt;/a&gt;&lt;script data-cfhash='f9e31' type=&quot;text/javascript&quot;&gt;\n/* &lt;![CDATA[ */!function(){try{var t=&quot;currentScript&quot;in document?document.currentScript:function(){for(var t=document.getElementsByTagName(&quot;script&quot;),e=t.length;e--;)if(t[e].getAttribute(&quot;data-cfhash&quot;))return t[e]}();if(t&amp;&amp;t.previousSibling){var e,r,n,i,c=t.previousSibling,a=c.getAttribute(&quot;data-cfemail&quot;);if(a){for(e=&quot;&quot;,r=parseInt(a.substr(0,2),16),n=2;a.length-n;n+=2)i=parseInt(a.substr(n,2),16)^r,e+=String.fromCharCode(i);e=document.createTextNode(e),c.parentNode.replaceChild(e,c)}t.parentNode.removeChild(t);}}catch(u){}}()/* ]]&gt; */&lt;/script&gt;\nFormat settings, CABAC                   : Yes\nFormat settings, ReFrames                : 5 frames\nCodec ID                                 : V_MPEG4/ISO/AVC\nDuration                                 : 1h 26mn\nBit rate                                 : 1 099 Kbps\nWidth                                    : 620 pixels\nHeight                                   : 320 pixels\nDisplay aspect ratio                     : 1.938\nFrame rate mode                          : Constant\nFrame rate                               : 25.000 fps\nColor space                              : YUV\nChroma subsampling                       : 4:2:0\nBit depth                                : 8 bits\nScan type                                : Progressive\nBits/(Pixel*Frame)                       : 0.222\nStream size                              : 678 MiB (88%)\nWriting library                          : x264 core 148 r2597 e86f3a1\nEncoding settings                        : cabac=1 / ref=5 / deblock=1:-1:-1 / analyse=0x3:0x133 / me=hex / subme=9 /\npsy=1 / psy_rd=1.00:0.80 / mixed_ref=1 / me_range=16 / chroma_me=1 / trellis=1 / 8x8dct=1 / cqm=0 / deadzone=21,11 /\nfast_pskip=1 / chroma_qp_offset=-4 / threads=9 / lookahead_threads=1 / sliced_threads=0 / nr=0 / decimate=1 /\ninterlaced=0 / bluray_compat=0 / constrained_intra=0 / bframes=5 / b_pyramid=2 / b_adapt=2 / b_bias=0 / direct=1 /\nweightb=1 / open_gop=0 / weightp=2 / keyint=250 / keyint_min=25 / scenecut=40 / intra_refresh=0 / rc_lookahead=40 /\nrc=crf / mbtree=1 / crf=20.0 / qcomp=0.60 / qpmin=0 / qpmax=69 / qpstep=4 / ip_ratio=1.40 / aq=1:1.50\n\nDefault                                  : Yes\nForced                                   : No\n\nAudio\nID                                       : 2\nFormat                                   : AC-3\nFormat/Info                              : Audio Coding 3\nMode extension                           : CM (complete main)\nFormat settings, Endianness              : Big\nCodec ID                                 : A_AC3\nDuration                                 : 1h 26mn\nBit rate mode                            : Constant\nBit rate                                 : 128 Kbps\nChannel(s)                               : 2 channels\nChannel positions                        : Front: L R\nSampling rate                            : 44.1 KHz\nCompression mode                         : Lossy\nStream size                              : 78.9 MiB (10%)\nDefault                                  : Yes\nForced                                   : No\nSource Video                             : MRG\nSource Audio                             : MRG\nGenre                                    : Action, Comedy\nRelease Date                             : 08/21/2015\nSample Included                          : Yes\nImdb                                     : http://www.imdb.com/title/tt3316948/\n\nWell here is our version of American Ultra. We were asked if we could make it just a tad bit better and we did what\nwe could with it. Thanks to MRG for thier release of it. We eliminated most of the color cross talk we brightened\nit up and lowered the hot spots adjusted colors and most of the pixelation and the sharpened. For those that asked\nhere it is and for those that will download and didnt ask hope you all enjoy the same. Its a great movie. As always\nlook at sample as screens always look better.\n\nScreens : -\n &lt;a href=&quot;\nhttp://imgsparrow.co/image/8y1&quot; rel=&quot;nofollow&quot; target=&quot;_NEW&quot;&gt;\nhttp://imgsparrow.co/image/8y1&lt;/a&gt; &lt;a href=&quot;\nhttp://imgsparrow.co/image/856&quot; rel=&quot;nofollow&quot; target=&quot;_NEW&quot;&gt;\nhttp://imgsparrow.co/image/856&lt;/a&gt; &lt;a href=&quot;\nhttp://imgsparrow.co/image/858&quot; rel=&quot;nofollow&quot; target=&quot;_NEW&quot;&gt;\nhttp://imgsparrow.co/image/858&lt;/a&gt; &lt;a href=&quot;\nhttp://imgsparrow.co/image/859&quot; rel=&quot;nofollow&quot; target=&quot;_NEW&quot;&gt;\nhttp://imgsparrow.co/image/859&lt;/a&gt; &lt;a href=&quot;\nhttp://imgsparrow.co/image/85L&quot; rel=&quot;nofollow&quot; target=&quot;_NEW&quot;&gt;\nhttp://imgsparrow.co/image/85L&lt;/a&gt; &lt;a href=&quot;\nhttp://imgsparrow.co/image/85N&quot; rel=&quot;nofollow&quot; target=&quot;_NEW&quot;&gt;\nhttp://imgsparrow.co/image/85N&lt;/a&gt; &lt;a href=&quot;\nhttp://imgsparrow.co/image/85t&quot; rel=&quot;nofollow&quot; target=&quot;_NEW&quot;&gt;\nhttp://imgsparrow.co/image/85t&lt;/a&gt; &lt;a href=&quot;\nhttp://imgsparrow.co/image/85E&quot; rel=&quot;nofollow&quot; target=&quot;_NEW&quot;&gt;\nhttp://imgsparrow.co/image/85E&lt;/a&gt; &lt;a href=&quot;\nhttp://imgsparrow.co/image/85J&quot; rel=&quot;nofollow&quot; target=&quot;_NEW&quot;&gt;\nhttp://imgsparrow.co/image/85J&lt;/a&gt;\n &lt;a href=&quot;\nhttp://imgsparrow.co/image/8nG&quot; rel=&quot;nofollow&quot; target=&quot;_NEW&quot;&gt;\nhttp://imgsparrow.co/image/8nG&lt;/a&gt;","torrent":{"xt":"urn:btih:37591192d587c071fb8cde25d0567d8a6f799c81","amp;dn":"American+Ultra+2015+Cam+x264+AC3-Garmin","amp;tr":["udp%3A%2F%2Ftracker.openbittorrent.com%3A80","udp%3A%2F%2Fopen.demonii.com%3A1337","udp%3A%2F%2Ftracker.coppersurfer.tk%3A6969","udp%3A%2F%2Fexodus.desync.com%3A6969"],"infoHash":"37591192d587c071fb8cde25d0567d8a6f799c81","infoHashBuffer":{"type":"Buffer","data":[55,89,17,146,213,135,192,113,251,140,222,37,208,86,125,138,111,121,156,129]},"announce":[],"urlList":[]}}